Coordinates
version=1
nRows=9
nColumns=24
inDegrees=yes

Units are S.I. units (second, meters, Newtons, ...)
Angles are in degrees.

endheader
time	pelvis_tilt	pelvis_list	pelvis_rotation	pelvis_tx	pelvis_ty	pelvis_tz	hip_flexion_r	hip_adduction_r	hip_rotation_r	knee_angle_r	ankle_angle_r	subtalar_angle_r	mtp_angle_r	hip_flexion_l	hip_adduction_l	hip_rotation_l	knee_angle_l	ankle_angle_l	subtalar_angle_l	mtp_angle_l	lumbar_extension	lumbar_bending	lumbar_rotation
      1.18733333	      3.16311757	      6.28212681	     -3.88828348	      0.11937732	      1.02220628	      0.24239474	     11.69301651	     -7.37423278	     -3.07463340	    -63.34554863	      6.05085690	    -19.50668521	     -2.28092339	      5.13143450	      9.60455405	      0.67654106	    -10.14028452	      2.21678104	    -14.52669574	      1.16790891	     -6.31938773	     -8.22837500	      5.66983697
      1.19150000	      3.11935578	      6.14915002	     -3.88069318	      0.12429005	      1.02290429	      0.24225828	     12.22027596	     -7.17332537	     -3.03699714	    -62.86770418	      6.27398504	    -19.55771849	     -2.28032842	      4.71636432	      9.49385886	      0.74590908	     -9.86967627	      2.32179278	    -14.52289368	      1.15986716	     -6.32178048	     -8.09173919	      5.56134781
      1.19566667	      3.07667580	      6.00247036	     -3.84996626	      0.12917134	      1.02360397	      0.24212148	     12.72032811	     -6.94948780	     -3.00850278	    -62.30352840	      6.43961697	    -19.57064723	     -2.27811582	      4.29831486	      9.37054770	      0.88026038	     -9.59833615	      2.41068664	    -14.56001127	      1.14354742	     -6.34824148	     -7.95615135	      5.35389414
      1.19983333	      3.03381912	      5.87620910	     -3.80725480	      0.13408945	      1.02426207	      0.24195409	     13.20599031	     -6.76004120	     -3.00460858	    -61.68495229	      6.58347070	    -19.55312214	     -2.26784973	      3.86090720	      9.27238126	      1.05165281	     -9.28738206	      2.49992397	    -14.64255429	      1.10679311	     -6.35793023	     -7.82786470	      5.04682833
      1.20400000	      2.97291146	      5.74432819	     -3.78875234	      0.13900472	      1.02486391	      0.24184210	     13.70405029	     -6.54931339	     -2.96673891	    -61.00903383	      6.74561062	    -19.48954071	     -2.25924084	      3.45392122	      9.15571400	      1.12001623	     -8.99228971	      2.59292299	    -14.61745772	      1.09542414	     -6.34449902	     -7.68584872	      4.94670871
      1.20816667	      2.91767949	      5.59205072	     -3.73544484	      0.14392361	      1.02548502	      0.24172474	     14.15501701	     -6.31445618	     -2.95733991	    -60.23825945	      6.86631969	    -19.37837212	     -2.24346214	      3.04404385	      9.01669840	      1.23915204	     -8.71443618	      2.67994481	    -14.62847499	      1.07567009	     -6.34819668	     -7.54632827	      4.74911463
      1.21233333	      2.87304771	      5.45614202	     -3.68595964	      0.14885173	      1.02607666	      0.24161563	     14.58476498	     -6.10103717	     -2.94832076	    -59.42144503	      6.97136429	    -19.25008745	     -2.22341527	      2.61245460	      8.89436580	      1.35507851	     -8.41026500	      2.76736462	    -14.62967299	      1.05487094	     -6.35763475	     -7.41455186	      4.53861762
      1.21650000	      2.85149202	      5.34205272	     -3.61997846	      0.15377061	      1.02663013	      0.24146982	     14.97833575	     -5.92519278	     -2.96403125	    -58.56607172	      7.05688428	    -19.10412856	     -2.17322617	      2.14375990	      8.80153604	      1.53229881	     -8.07834060	      2.86385554	    -14.68468871	      1.00516777	     -6.40295644	     -7.30578642	      4.17653643
      1.22066667	      2.77406695	      5.20899588	     -3.57341038	      0.15871482	      1.02708644	      0.24139200	     15.41458605	     -5.70469908	     -2.93986694	    -57.64674271	      7.12695147	    -18.93628220	     -2.14861317	      1.75212965	      8.67322192	      1.60390823	     -7.78081546	      2.94092029	    -14.65019036	      0.98561835	     -6.37176016	     -7.17463973	      4.05390046
